<?xml version="1.0" standalone="no"?>
<!DOCTYPE svg PUBLIC "-//W3C//DTD SVG 20010904//EN"
 "http://www.w3.org/TR/2001/REC-SVG-20010904/DTD/svg10.dtd">
<svg version="1.0" xmlns="http://www.w3.org/2000/svg"
 width="512.000000pt" height="512.000000pt" viewBox="0 0 512.000000 512.000000"
 preserveAspectRatio="xMidYMid meet">
<metadata>
Created by potrace 1.11, written by Peter Selinger 2001-2013
</metadata>
<g transform="translate(0.000000,512.000000) scale(0.100000,-0.100000)"
fill="#000000" stroke="none">
<path d="M2375 5114 c-16 -2 -73 -9 -125 -15 -1054 -118 -1951 -926 -2185
-1969 -47 -208 -59 -330 -59 -575 0 -262 19 -413 78 -640 180 -692 656 -1290
1289 -1620 646 -337 1378 -384 2077 -134 140 50 377 172 520 267 385 257 683
595 885 1007 40 83 87 188 104 235 250 699 203 1431 -134 2077 -125 240 -284
452 -486 648 -392 379 -866 614 -1404 696 -123 19 -483 34 -560 23z m248 -804
c15 -69 20 -160 27 -485 5 -220 14 -458 19 -530 18 -218 43 -453 50 -464 5 -7
74 9 200 44 454 129 882 215 1198 241 l82 6 -6 -73 c-3 -41 -8 -77 -12 -80
-24 -24 -462 -155 -986 -295 -236 -63 -431 -117 -434 -119 -11 -11 142 -750
219 -1057 55 -217 95 -411 105 -503 l6 -60 -77 -63 -78 -63 -43 85 c-53 105
-110 269 -156 451 -90 351 -200 843 -241 1088 -5 24 -12 37 -23 37 -24 0 -737
-240 -923 -310 -91 -34 -237 -93 -325 -130 -88 -38 -179 -71 -202 -75 -50 -8
-48 -14 -32 115 l11 87 202 101 c272 137 669 293 1079 423 l168 54 -5 35 c-38
251 -56 533 -56 886 0 309 11 520 33 642 l12 65 65 18 c102 27 102 27 123 -71z
m868 -107 c159 -75 259 -258 259 -473 0 -150 -43 -253 -142 -345 -31 -29 -83
-66 -115 -81 -49 -24 -70 -29 -138 -28 -105 0 -183 34 -255 110 -83 88 -123
204 -123 354 0 243 111 435 283 491 52 17 164 4 231 -28z m-1696 -675 c57 -46
65 -56 60 -78 -9 -36 -71 -167 -106 -221 -16 -25 -29 -48 -29 -51 0 -2 35 -32
78 -66 42 -33 97 -81 122 -106 l44 -46 -54 -55 c-30 -31 -63 -55 -75 -55 -25
0 -133 51 -189 88 -23 15 -46 31 -52 35 -7 4 -32 -29 -65 -85 -30 -50 -70
-109 -90 -132 l-36 -40 -89 60 c-68 45 -88 64 -86 79 8 45 46 128 102 223 l61
102 -54 63 c-67 79 -114 147 -134 194 l-15 37 45 43 c25 24 54 43 64 43 9 0
61 -46 115 -102 97 -101 99 -102 114 -80 48 70 177 201 196 202 4 0 37 -24 73
-52z m2059 -1215 l59 -36 -6 -71 c-4 -39 -22 -125 -42 -191 l-35 -120 62 -55
c78 -67 128 -118 156 -158 l22 -30 -57 -78 c-30 -44 -57 -81 -60 -83 -6 -8
-96 40 -160 85 l-62 44 -32 -60 c-17 -33 -46 -76 -63 -96 l-31 -36 -83 48
c-60 36 -82 54 -82 69 0 18 48 163 81 242 13 32 12 34 -32 80 -64 66 -138 158
-178 221 l-34 53 54 55 c29 30 59 54 66 54 14 0 121 -86 195 -158 l47 -46 72
152 c40 84 75 152 79 152 3 0 32 -16 64 -37z m-1766 -343 c186 -99 295 -371
237 -593 -33 -129 -118 -240 -222 -292 -51 -26 -69 -29 -148 -29 -117 0 -183
25 -265 101 -64 59 -110 138 -135 233 -19 70 -19 239 0 309 40 152 134 259
265 302 14 5 66 7 115 6 80 -3 97 -7 153 -37z"/>
<path d="M3290 3960 c-34 -36 -68 -121 -83 -205 -10 -59 -9 -63 23 -124 56
-105 135 -132 205 -70 97 85 83 332 -23 404 -50 34 -87 32 -122 -5z"/>
<path d="M1851 1759 c-75 -46 -106 -120 -99 -238 9 -153 103 -249 222 -227
108 20 163 165 116 306 -52 156 -144 217 -239 159z"/>
</g>
</svg>
