<?xml version="1.0" standalone="no"?>
<!DOCTYPE svg PUBLIC "-//W3C//DTD SVG 20010904//EN"
 "http://www.w3.org/TR/2001/REC-SVG-20010904/DTD/svg10.dtd">
<svg version="1.0" xmlns="http://www.w3.org/2000/svg"
 width="1042.000000pt" height="1042.000000pt" viewBox="0 0 1042.000000 1042.000000"
 preserveAspectRatio="xMidYMid meet">
<metadata>
Created by potrace 1.11, written by Peter Selinger 2001-2013
</metadata>
<g transform="translate(0.000000,1042.000000) scale(0.100000,-0.100000)"
fill="#000000" stroke="none">
<path d="M4745 10405 c-977 -93 -1875 -434 -2640 -1005 -217 -161 -370 -294
-580 -505 -211 -210 -344 -363 -505 -580 -509 -682 -845 -1495 -969 -2340 -42
-285 -54 -486 -48 -850 6 -426 31 -650 112 -1030 220 -1024 780 -2001 1554
-2710 853 -782 1863 -1238 3016 -1361 200 -21 654 -29 860 -15 1128 79 2136
482 3005 1201 161 133 527 499 660 660 719 869 1122 1877 1201 3005 22 314 3
777 -46 1110 -276 1893 -1612 3509 -3430 4147 -366 129 -738 213 -1160 264
-190 22 -831 28 -1030 9z m553 -1493 c19 -64 49 -221 62 -322 6 -52 13 -106
16 -120 3 -14 9 -317 14 -675 8 -624 19 -884 56 -1325 17 -206 74 -733 79
-739 2 -2 147 37 322 87 1088 311 1792 451 2648 526 l40 3 -6 -96 c-4 -53 -7
-121 -8 -152 l-1 -56 -287 -96 c-477 -159 -801 -252 -1798 -517 -819 -217
-825 -219 -825 -241 0 -10 20 -128 45 -261 108 -589 283 -1404 415 -1928 54
-217 115 -474 135 -570 32 -156 75 -444 75 -503 0 -16 -38 -53 -146 -142 -80
-66 -148 -121 -152 -122 -4 -2 -26 32 -49 75 -107 199 -232 534 -323 867 -91
332 -333 1366 -420 1790 -36 177 -120 629 -120 647 0 8 -59 -10 -507 -153
-824 -263 -1539 -523 -2097 -763 -225 -97 -338 -135 -440 -150 -37 -5 -38 -4
-33 22 4 15 16 107 29 205 l23 178 265 138 c146 76 338 173 426 214 406 189
1312 529 1983 743 145 46 266 86 269 89 2 2 -7 98 -21 212 -79 634 -89 786
-94 1518 -5 652 2 927 33 1210 18 172 43 335 54 355 8 13 256 85 306 89 16 1
24 -8 32 -37z m1667 -312 c343 -88 580 -385 650 -815 38 -234 0 -503 -96 -674
-86 -152 -234 -292 -394 -374 -191 -96 -409 -95 -610 3 -224 109 -366 313
-432 620 -27 128 -25 399 6 539 79 370 287 636 551 705 82 22 232 20 325 -4z
m-3265 -1468 c41 -31 77 -57 79 -59 10 -8 -44 -154 -98 -268 -32 -66 -87 -168
-124 -227 -37 -58 -67 -110 -67 -115 1 -4 45 -41 98 -80 125 -94 282 -232 346
-306 l50 -58 -111 -111 -110 -110 -59 17 c-131 38 -263 105 -406 208 l-76 55
-73 -126 c-97 -169 -181 -292 -243 -358 l-51 -55 -80 50 c-44 27 -126 80 -182
118 l-102 70 35 104 c41 122 129 295 238 467 l77 122 -88 102 c-111 130 -149
177 -202 255 -48 72 -121 220 -120 242 1 16 164 166 191 176 25 10 181 -129
310 -275 70 -80 131 -145 137 -145 5 0 38 38 74 85 104 138 237 277 336 352
l35 27 55 -51 c31 -28 90 -76 131 -106z m4138 -2428 c59 -37 109 -68 111 -70
9 -8 0 -180 -14 -246 -8 -41 -46 -180 -84 -308 l-68 -234 101 -81 c142 -114
264 -233 331 -320 51 -67 55 -75 44 -97 -28 -53 -214 -308 -225 -308 -41 0
-232 110 -354 203 l-84 65 -59 -107 c-62 -116 -181 -281 -200 -281 -14 0 -305
165 -324 184 -25 23 49 274 148 499 22 48 39 90 39 93 0 2 -39 46 -87 97 -174
185 -312 362 -401 513 l-30 51 112 112 c61 61 115 111 120 111 14 0 230 -177
371 -304 l129 -117 38 83 c152 331 254 537 266 533 7 -2 61 -35 120 -71z
m-3696 -651 c166 -58 314 -179 424 -348 68 -105 85 -141 127 -261 132 -380 60
-788 -188 -1062 -89 -98 -245 -191 -375 -223 -77 -19 -249 -16 -335 5 -122 31
-261 105 -348 186 -379 354 -424 1065 -92 1482 60 76 142 140 240 188 112 54
194 70 340 66 102 -3 133 -7 207 -33z"/>
<path d="M6755 8112 c-106 -50 -186 -210 -240 -483 l-17 -85 31 -80 c78 -201
204 -309 341 -290 168 23 273 231 257 511 -12 198 -84 342 -204 407 -68 37
-118 43 -168 20z"/>
<path d="M3823 3616 c-170 -56 -272 -234 -273 -477 0 -228 96 -414 252 -485
54 -24 76 -28 153 -29 75 0 97 4 133 23 144 77 226 253 208 450 -19 205 -144
440 -270 504 -51 26 -147 33 -203 14z"/>
</g>
</svg>
